<?xml version="1.0" standalone="no"?>
<svg viewBox="0 0 200 200" xmlns="http://www.w3.org/2000/svg">
  <path fill="#A6B6F7" d="M25.1,-42.8C33.1,-39,40.3,-33.2,37.6,-25.8C34.9,-18.3,22.2,-9.2,24.8,1.5C27.4,12.2,45.3,24.3,47.6,31.1C50,37.9,36.8,39.4,26.3,34.1C15.8,28.7,7.9,16.4,-3.1,21.7C-14,27,-28,49.9,-33.3,52.3C-38.5,54.6,-34.9,36.3,-44,24.2C-53.2,12.1,-75,6,-74.2,0.5C-73.3,-5.1,-49.8,-10.1,-37,-15.9C-24.2,-21.7,-22.1,-28.2,-17.7,-34.1C-13.3,-40,-6.7,-45.3,1,-47C8.6,-48.6,17.2,-46.7,25.1,-42.8Z" transform="translate(100 100)" />
</svg>
